:version 1.10
:name ASF
:units
  mass 1
  length 1
  angle deg
:documentation
  ASF file generated by Kaydara
:root
  axis xyz
  order  tx ty tz rx ry rz
  position 0 0 0
  orientation 0 0 0
:bonedata
  begin
    id 1
    name RightUpLegDummy
    direction -1 2.30186e-007 8.31532e-007
    length 4.04083
    axis 0 0 0 xyz
  end
  begin
    id 2
    name RightUpLeg
    direction -0.000919234 -0.999985 0.00544864
    length 17.4221
    axis -3.80308 -0.00076134 -0.0523649 xyz
    dof rx ry rz
  end
  begin
    id 3
    name RightLeg
    direction -0.000919271 -0.999984 -0.00555045
    length 17.1239
    axis 4.00314 0.0181274 -0.183583 xyz
    dof rx ry rz
  end
  begin
    id 4
    name RightFoot
    direction -2.57843e-005 -4.04509e-007 1
    length 6.72091
    axis 8.18909e-005 -0.122003 -0.403008 xyz
    dof rx ry rz
  end
  begin
    id 5
    name RightToes
    direction 0.00116825 -0.014069 0.9999
    length 3.85082
    axis 0.000514414 0.540638 -0.356797 xyz
    dof rx ry rz
  end
  begin
    id 6
    name SpineDummy
    direction 0.0168869 0.966876 -0.254689
    length 6.99894
    axis 0 0 0 xyz
  end
  begin
    id 7
    name Spine
    direction -0.0132008 0.999903 0.00446247
    length 11.1999
    axis -0.00148109 0.00725429 0.756411 xyz
    dof rx ry rz
  end
  begin
    id 8
    name Spine1
    direction 0 0 0
    length 0
    axis -0.000934958 0.0245693 1.46543 xyz
    dof rx ry rz
  end
  begin
    id 9
    name HEadDummy
    direction -0.0255732 0.999672 0.00128215
    length 3.43865
    axis -0.000934958 0.0245693 1.46543 xyz
  end
  begin
    id 10
    name HEad
    direction -0.0472656 0.980052 0.19304
    length 5.12695
    axis -0.000934954 0.0245693 1.46543 xyz
    dof rx ry rz
  end
  begin
    id 11
    name LeftShoulder1Dummy
    direction 0.953098 0.301717 -0.023914
    length 3.68488
    axis -0.000934958 0.0245693 1.46543 xyz
  end
  begin
    id 12
    name LeftShoulder1
    direction 0.962466 0.271167 0.0112566
    length 3.13809
    axis -0.000934958 0.0245693 1.46543 xyz
    dof rx ry rz
  end
  begin
    id 13
    name LeftArm
    direction 0.999943 0.00455037 -0.00961766
    length 11.3419
    axis -23.1648 0.685459 1.22814 xyz
    dof rx ry rz
  end
  begin
    id 14
    name LeftForeArm
    direction 0.999332 0.0131969 0.0340885
    length 8.70632
    axis -9.90633 0.618216 0.0826942 xyz
    dof rx ry rz
  end
  begin
    id 15
    name LeftHand
    direction 0.994373 -0.0366703 0.0993905
    length 5.32135
    axis 0.00675269 0.680415 0.445699 xyz
    dof rx ry rz
  end
  begin
    id 16
    name RightShoulderDummy
    direction -0.967298 0.252589 -0.0230903
    length 3.68488
    axis -0.000934958 0.0245693 1.46543 xyz
  end
  begin
    id 17
    name RightShoulder
    direction -0.975062 0.221602 0.0120823
    length 3.13809
    axis 0.216257 0.0246515 1.45863 xyz
    dof rx ry rz
  end
  begin
    id 18
    name RightArm
    direction -0.99886 -0.00851186 -0.0469687
    length 10.3947
    axis -23.196 0.23503 -0.532632 xyz
    dof rx ry rz
  end
  begin
    id 19
    name RightForeArm
    direction -0.99909 0.00114866 0.0426317
    length 8.68355
    axis -9.91764 -0.134943 0.610517 xyz
    dof rx ry rz
  end
  begin
    id 20
    name RightHand
    direction -0.992888 -0.0489538 0.10852
    length 5.28593
    axis -0.00275396 -0.197403 0.246414 xyz
    dof rx ry rz
  end
  begin
    id 21
    name LeftUpLegDummy
    direction 1 -2.30186e-007 -8.31532e-007
    length 4.04083
    axis 0 0 0 xyz
  end
  begin
    id 22
    name LeftUpLeg
    direction -0.000920097 -1 2.79241e-006
    length 17.4221
    axis -3.48782 0.00143434 -0.0532288 xyz
    dof rx ry rz
  end
  begin
    id 23
    name LeftLeg
    direction -0.000920097 -1 2.7912e-006
    length 17.1239
    axis 3.68162 -0.00806512 -0.0529896 xyz
    dof rx ry rz
  end
  begin
    id 24
    name LeftFoot
    direction -2.57845e-005 -3.987e-007 1
    length 6.72091
    axis 3.02372e-005 -0.00147829 -0.214229 xyz
    dof rx ry rz
  end
  begin
    id 25
    name LeftToes
    direction 0.00813577 -0.00488255 0.999955
    length 3.85048
    axis 3.89895e-005 -0.0014783 -0.214229 xyz
    dof rx ry rz
  end
:hierarchy
  begin
    root RightUpLegDummy SpineDummy LeftUpLegDummy
    RightUpLegDummy RightUpLeg
    RightUpLeg RightLeg
    RightLeg RightFoot
    RightFoot RightToes
    SpineDummy Spine
    Spine Spine1
    Spine1 HEadDummy LeftShoulder1Dummy RightShoulderDummy
    HEadDummy HEad
    LeftShoulder1Dummy LeftShoulder1
    LeftShoulder1 LeftArm
    LeftArm LeftForeArm
    LeftForeArm LeftHand
    RightShoulderDummy RightShoulder
    RightShoulder RightArm
    RightArm RightForeArm
    RightForeArm RightHand
    LeftUpLegDummy LeftUpLeg
    LeftUpLeg LeftLeg
    LeftLeg LeftFoot
    LeftFoot LeftToes
  end

:SAMPLES-PER-SECOND 30
:FULLY-SPECIFIED
:DEGREES
25
root  -43.3635 34.7137 23.0722 -169.634 60.664 -178.461
RightUpLeg  -6.35753 -19.6202 -3.35625
RightLeg  2.63233 -1.49427 0.028154
RightFoot  9.43369 0.044547 -0.0834541
RightToes  -33.2358 -0.165202 -0.272345
Spine  -1.73793 -0.0649236 0.27654
Spine1  -3.52762 -0.058812 1.19687
HEad  -65.8913 -0.668048 4.18912
LeftShoulder1  -1.94126e-019 -3.10601e-018 -2.51263e-017
LeftArm  -7.88573 23.2311 -80.8448
LeftForeArm  34.6531 -17.9796 -2.85289
LeftHand  -0.458649 -2.14619 7.26414
RightShoulder  -4.96962e-017 0 -2.36833e-017
RightArm  -22.5663 -21.5807 77.808
RightForeArm  58.2711 14.1963 1.20168
RightHand  -0.392073 -1.07716 -10.257
LeftUpLeg  -6.17883 6.74557 5.28956
LeftLeg  3.47282 12.8083 -0.0468107
LeftFoot  8.25059 -0.13062 2.00305
LeftToes  -29.2948 2.32378e-006 -5.43956e-008
26
root  -43.3853 34.7119 23.0833 -169.695 60.6824 -178.476
RightUpLeg  -6.36274 -19.3578 -3.40399
RightLeg  2.71014 -1.58403 0.0276719
RightFoot  9.38326 0.0454615 -0.0965228
RightToes  -33.053 -0.165202 -0.272345
Spine  -1.71989 -0.058522 0.264207
Spine1  -3.49221 -0.0467329 1.17647
HEad  -65.9589 -0.642062 4.00995
LeftShoulder1  -1.94126e-019 -3.10601e-018 -2.51263e-017
LeftArm  -8.14094 23.3081 -80.7978
LeftForeArm  34.8771 -17.5504 -2.79788
LeftHand  -0.460131 -2.09662 7.35424
RightShoulder  -4.96962e-017 0 -2.36833e-017
RightArm  -22.8565 -21.6642 77.7306
RightForeArm  58.5427 14.0723 1.21677
RightHand  -0.392682 -1.11346 -10.2772
LeftUpLeg  -6.17961 6.77596 5.28074
LeftLeg  3.50646 12.7827 -0.03928
LeftFoot  8.2235 -0.13012 1.99193
LeftToes  -29.4073 2.32378e-006 -5.43956e-008
27
root  -43.4 34.7113 23.0931 -169.749 60.7412 -178.48
RightUpLeg  -6.40385 -19.493 -3.38116
RightLeg  2.76126 -1.543 0.0256043
RightFoot  9.41686 0.0452645 -0.0937084
RightToes  -33.1998 -0.165202 -0.272345
Spine  -1.69924 -0.053487 0.250685
Spine1  -3.45122 -0.0377168 1.1542
HEad  -65.9131 -0.466292 4.05234
LeftShoulder1  -1.94126e-019 -3.10601e-018 -2.51263e-017
LeftArm  -8.30688 23.3917 -80.732
LeftForeArm  34.9845 -17.1858 -2.75127
LeftHand  -0.463971 -2.12059 7.36931
RightShoulder  -4.96962e-017 0 -2.36833e-017
RightArm  -22.9924 -21.7075 77.6601
RightForeArm  58.6534 13.9604 1.23207
RightHand  -0.391947 -1.14551 -10.3315
LeftUpLeg  -6.14416 6.72527 5.28546
LeftLeg  3.51646 12.8542 -0.0372711
LeftFoot  8.18163 -0.130328 1.99235
LeftToes  -29.4525 2.32378e-006 -5.43956e-008
28
root  -43.4149 34.7104 23.1002 -169.791 60.8115 -178.481
RightUpLeg  -6.45011 -19.432 -3.392
RightLeg  2.85884 -1.53416 0.0228664
RightFoot  9.38755 0.044966 -0.0894419
RightToes  -33.1969 -0.165202 -0.272345
Spine  -1.67829 -0.04595 0.23472
Spine1  -3.40982 -0.023147 1.12742
HEad  -65.987 -0.385492 4.10684
LeftShoulder1  -1.94126e-019 -3.10601e-018 -2.51263e-017
LeftArm  -8.51645 23.4665 -80.6716
LeftForeArm  35.0291 -16.9348 -2.71499
LeftHand  -0.465589 -2.12227 7.38828
RightShoulder  -4.96962e-017 0 -2.36833e-017
RightArm  -23.1279 -21.7398 77.6011
RightForeArm  58.7572 13.9203 1.23687
RightHand  -0.393923 -1.11257 -10.2935
LeftUpLeg  -6.11295 6.73815 5.28148
LeftLeg  3.52183 12.895 -0.0361881
LeftFoot  8.15258 -0.13039 1.99105
LeftToes  -29.5094 2.32378e-006 -5.43956e-008
29
root  -43.4251 34.7093 23.1056 -169.817 60.9506 -178.479
RightUpLeg  -6.48416 -19.2556 -3.402
RightLeg  2.89271 -1.57635 0.0225515
RightFoot  9.40351 0.045474 -0.0967022
RightToes  -33.1808 -0.165202 -0.272345
Spine  -1.66563 -0.031285 0.216341
Spine1  -3.38506 0.00613058 1.09491
HEad  -66.0352 -0.421662 3.98306
LeftShoulder1  -1.94126e-019 -3.10601e-018 -2.51263e-017
LeftArm  -8.74114 23.5543 -80.6067
LeftForeArm  35.0068 -16.728 -2.68138
LeftHand  -0.467765 -2.14904 7.37784
RightShoulder  -4.96962e-017 0 -2.36833e-017
RightArm  -23.2465 -21.743 77.5729
RightForeArm  58.8269 13.8999 1.23913
RightHand  -0.392462 -1.10367 -10.3571
LeftUpLeg  -6.07707 6.79581 5.27254
LeftLeg  3.53034 12.9463 -0.0344209
LeftFoot  8.13715 -0.130727 1.99458
LeftToes  -29.5376 2.32378e-006 -5.43956e-008
30
root  -43.43 34.7078 23.1072 -169.823 61.1143 -178.459
RightUpLeg  -6.51813 -19.2568 -3.39977
RightLeg  2.92344 -1.42595 0.0197039
RightFoot  9.39872 0.0438054 -0.0728559
RightToes  -33.1449 -0.165202 -0.272345
Spine  -1.66253 -0.0173528 0.202047
Spine1  -3.37936 0.0344259 1.06959
HEad  -65.9934 -0.341241 3.9963
LeftShoulder1  -1.94126e-019 -3.10601e-018 -2.51263e-017
LeftArm  -8.99826 23.6385 -80.5725
LeftForeArm  35.0534 -16.5749 -2.65515
LeftHand  -0.468677 -2.11053 7.37999
RightShoulder  -4.96962e-017 0 -2.36833e-017
RightArm  -23.3121 -21.7548 77.5569
RightForeArm  58.8559 13.9418 1.23264
RightHand  -0.393321 -1.11264 -10.3376
LeftUpLeg  -6.03003 6.875 5.26735
LeftLeg  3.53902 13.0356 -0.0326936
LeftFoot  8.1196 -0.131371 2.00341
LeftToes  -29.5828 2.32378e-006 -5.43956e-008
